Coordinates
version=1
nRows=11
nColumns=46
inDegrees=yes

Units are S.I. units (second, meters, Newtons, ...)
Angles are in degrees.

endheader
time	pelvis_tilt	pelvis_list	pelvis_rotation	pelvis_tx	pelvis_ty	pelvis_tz	bb_angle	bb_tx	bb_ty	bb_tz	hip_flexion_r	hip_adduction_r	hip_rotation_r	knee_angle_r	knee_angle_r_beta	ankle_angle_r	subtalar_angle_r	mtp_angle_r	crank_angle_r	hip_flexion_l	hip_adduction_l	hip_rotation_l	knee_angle_l	knee_angle_l_beta	ankle_angle_l	subtalar_angle_l	mtp_angle_l	crank_angle_l	lumbar_extension	lumbar_bending	lumbar_rotation	arm_flex_r	arm_add_r	arm_rot_r	elbow_flex_r	pro_sup_r	wrist_flex_r	wrist_dev_r	arm_flex_l	arm_add_l	arm_rot_l	elbow_flex_l	pro_sup_l	wrist_flex_l	wrist_dev_l
      0.00000000	    -18.44097846	     -2.41669298	      0.35211853	      0.06856579	      1.08887568	     -0.27356042	      0.00000000	      0.50000000	      0.00000000	      0.25000000	     80.16404831	     -2.47578755	      0.22854342	     80.72317487	      1.40888518	     12.70703158	     -9.61247000	      0.00000000	      0.00000000	     53.39883279	    -10.15151813	     -0.88382780	     75.64637247	      1.32027827	     15.90286965	      0.88849768	      0.00000000	      0.00000000	    -52.47364467	      0.39509025	      2.34235239	     89.40252474	    -13.36166631	     35.24055992	     39.93521109	     29.07395716	      0.00000000	      0.00000000	     88.34862561	    -13.72158854	     60.65506308	     26.11304764	     29.28291858	      0.00000000	      0.00000000
      0.00500000	    -18.55706528	     -2.30620237	      0.38185346	      0.06854504	      1.08874582	     -0.27372382	      0.00000000	      0.50000000	      0.00000000	      0.25000000	     80.29285087	     -2.55806249	      0.35032597	     80.69974448	      1.40847625	     12.69023589	     -9.49277514	      0.00000000	      0.00000000	     53.51151251	     -9.98129535	     -0.91859723	     75.62770457	      1.31995245	     15.69148581	      0.46705104	      0.00000000	      0.00000000	    -52.31768158	      0.32019711	      2.26685652	     89.40633996	    -13.43805806	     35.53262505	     39.52016023	     29.77193886	      0.00000000	      0.00000000	     88.37300765	    -13.37310060	     60.66182647	     25.22838236	     29.95927285	      0.00000000	      0.00000000
      0.01000000	    -18.49370573	     -2.30952574	      0.35753975	      0.06862179	      1.08882482	     -0.27368045	      0.00000000	      0.50000000	      0.00000000	      0.25000000	     80.21909874	     -2.53439042	      0.34321415	     80.70118788	      1.40850144	     12.71377820	     -9.48021019	      0.00000000	      0.00000000	     53.44503141	    -10.03817051	     -0.95498456	     75.65388350	      1.32040936	     15.73178017	      0.61951203	      0.00000000	      0.00000000	    -52.41606768	      0.29423143	      2.47833651	     89.37396849	    -13.89170239	     35.43674952	     39.97321018	     30.87085023	      0.00000000	      0.00000000	     88.56237309	    -13.41377513	     62.24870748	     24.90869921	     31.37486909	      0.00000000	      0.00000000
      0.01500000	    -18.44206071	     -2.37091329	      0.36952524	      0.06864784	      1.08900942	     -0.27388956	      0.00000000	      0.50000000	      0.00000000	      0.25000000	     80.09989542	     -2.54372421	      0.27517443	     80.66399960	      1.40785238	     12.79895834	     -9.44473944	      0.00000000	      0.00000000	     53.38631640	    -10.03904658	     -0.89105891	     75.63625863	      1.32010175	     15.77670702	      0.54769286	      0.00000000	      0.00000000	    -52.49060591	      0.38095646	      2.39977152	     89.40265686	    -13.71559610	     35.29838535	     39.57124995	     31.93756767	      0.00000000	      0.00000000	     88.41716725	    -13.48793212	     60.72232553	     25.06994420	     32.44165032	      0.00000000	      0.00000000
      0.02000000	    -18.42602457	     -2.39585240	      0.33167699	      0.06866822	      1.08906529	     -0.27382170	      0.00000000	      0.50000000	      0.00000000	      0.25000000	     80.08460148	     -2.50389255	      0.27400450	     80.68254725	      1.40817610	     12.84203946	     -9.40729516	      0.00000000	      0.00000000	     53.38038451	    -10.10990469	     -0.89789219	     75.68579154	      1.32096626	     15.85446096	      0.70808982	      0.00000000	      0.00000000	    -52.53686935	      0.38372819	      2.49446155	     89.38843049	    -13.80036623	     35.05004452	     39.65704597	     32.50742964	      0.00000000	      0.00000000	     88.31685568	    -13.53968649	     59.98158955	     25.40049337	     33.04207685	      0.00000000	      0.00000000
      0.02500000	    -18.49885990	     -2.37373054	      0.41344963	      0.06864146	      1.08897634	     -0.27404091	      0.00000000	      0.50000000	      0.00000000	      0.25000000	     80.16324202	     -2.61167401	      0.28700445	     80.67574874	      1.40805744	     12.80749064	     -9.40203545	      0.00000000	      0.00000000	     53.48658291	     -9.98204957	     -0.83847778	     75.68209642	      1.32090177	     15.69257575	      0.42877199	      0.00000000	      0.00000000	    -52.42882152	      0.44201289	      2.40234844	     89.40796755	    -13.75176302	     35.32945757	     39.23046156	     33.23400965	      0.00000000	      0.00000000	     88.30043608	    -13.37251270	     59.66549058	     24.91289473	     33.78881241	      0.00000000	      0.00000000
      0.03000000	    -18.43110988	     -2.34737583	      0.35777717	      0.06880422	      1.08915768	     -0.27386760	      0.00000000	      0.50000000	      0.00000000	      0.25000000	     80.06303645	     -2.54359248	      0.32278010	     80.65238304	      1.40764963	     12.88570272	     -9.45937325	      0.00000000	      0.00000000	     53.37445743	    -10.06216518	     -0.94150709	     75.66001922	      1.32051645	     15.67644926	      0.65068176	      0.00000000	      0.00000000	    -52.54070391	      0.35605726	      2.61705988	     89.35792639	    -14.31007879	     35.32771429	     40.07421245	     33.36570060	      0.00000000	      0.00000000	     88.55638232	    -13.58816332	     62.20915998	     24.89598861	     34.41862384	      0.00000000	      0.00000000
      0.03500000	    -18.43586950	     -2.37811715	      0.35364726	      0.06885001	      1.08907666	     -0.27388627	      0.00000000	      0.50000000	      0.00000000	      0.25000000	     80.07406091	     -2.52978997	      0.31611984	     80.66008156	      1.40778400	     12.81780392	     -9.36217048	      0.00000000	      0.00000000	     53.40304402	    -10.08844323	     -0.91133705	     75.72757962	      1.32169560	     15.80297624	      0.69847111	      0.00000000	      0.00000000	    -52.52989135	      0.41618796	      2.54340168	     89.38839221	    -13.98477386	     35.09698576	     39.53027252	     33.89570302	      0.00000000	      0.00000000	     88.37694794	    -13.66321409	     60.41990432	     25.21017360	     34.92208069	      0.00000000	      0.00000000
      0.04000000	    -18.41102567	     -2.37116268	      0.37813579	      0.06891738	      1.08912514	     -0.27398749	      0.00000000	      0.50000000	      0.00000000	      0.25000000	     80.04126615	     -2.59381389	      0.27329571	     80.65959265	      1.40777547	     12.84830334	     -9.31948127	      0.00000000	      0.00000000	     53.37826249	    -10.06121519	     -0.90376082	     75.72577992	      1.32166419	     15.77290746	      0.62812069	      0.00000000	      0.00000000	    -52.58688824	      0.41778786	      2.71611953	     89.35835002	    -14.43748581	     34.95264698	     40.07174487	     33.96294524	      0.00000000	      0.00000000	     88.57187938	    -13.53893913	     61.91108532	     24.83811009	     35.26066970	      0.00000000	      0.00000000
      0.04500000	    -18.39707766	     -2.33231829	      0.39908937	      0.06897970	      1.08914583	     -0.27404947	      0.00000000	      0.50000000	      0.00000000	      0.25000000	     80.02177260	     -2.64412400	      0.29576630	     80.65412108	      1.40767997	     12.85956127	     -9.30969298	      0.00000000	      0.00000000	     53.35885074	    -10.00883395	     -0.91985923	     75.73263808	      1.32178389	     15.74439135	      0.54510221	      0.00000000	      0.00000000	    -52.60642494	      0.41905016	      2.60929119	     89.36899008	    -14.30742819	     34.78291397	     39.85541501	     34.33227193	      0.00000000	      0.00000000	     88.48997502	    -13.57083913	     61.10291147	     24.88498435	     35.69141016	      0.00000000	      0.00000000
      0.05000000	    -18.41874370	     -2.33117396	      0.39055830	      0.06904718	      1.08912523	     -0.27402036	      0.00000000	      0.50000000	      0.00000000	      0.25000000	     80.03743775	     -2.64374845	      0.29417901	     80.64652837	      1.40754745	     12.84102616	     -9.27578118	      0.00000000	      0.00000000	     53.38460243	    -10.03203405	     -0.93221094	     75.73318865	      1.32179349	     15.71964882	      0.59172310	      0.00000000	      0.00000000	    -52.60347604	      0.43472535	      2.64732778	     89.37145898	    -14.35998452	     34.67056453	     39.84360586	     34.65323169	      0.00000000	      0.00000000	     88.43704871	    -13.56901413	     60.82501641	     24.91650842	     36.08869843	      0.00000000	      0.00000000
